<svg width="375" height="247" viewBox="0 0 375 247" fill="none" xmlns="http://www.w3.org/2000/svg">
<g opacity="0.1" filter="url(#filter0_d_601_18227)">
<rect x="17" y="24" width="342" height="147" rx="15" fill="white"/>
<rect x="17.5" y="24.5" width="341" height="146" rx="14.5" stroke="#F4F4F4"/>
</g>
<g opacity="0.1" filter="url(#filter1_d_601_18227)">
<rect x="27" y="104" width="322" height="57" rx="15" fill="white"/>
<rect x="27.5" y="104.5" width="321" height="56" rx="14.5" stroke="#F4F4F4"/>
</g>
<path d="M147.634 138.14C146.701 138.14 145.926 138.009 145.31 137.748C144.694 137.477 144.227 137.127 143.91 136.698C143.593 136.269 143.425 135.811 143.406 135.326C143.406 135.251 143.434 135.186 143.49 135.13C143.555 135.065 143.63 135.032 143.714 135.032H145.478C145.609 135.032 145.707 135.055 145.772 135.102C145.847 135.149 145.912 135.209 145.968 135.284C146.043 135.424 146.145 135.559 146.276 135.69C146.416 135.821 146.598 135.928 146.822 136.012C147.046 136.087 147.317 136.124 147.634 136.124C148.175 136.124 148.581 136.04 148.852 135.872C149.132 135.704 149.272 135.475 149.272 135.186C149.272 134.971 149.197 134.799 149.048 134.668C148.899 134.537 148.656 134.421 148.32 134.318C147.993 134.206 147.555 134.094 147.004 133.982C146.295 133.833 145.688 133.641 145.184 133.408C144.689 133.165 144.311 132.853 144.05 132.47C143.789 132.078 143.658 131.593 143.658 131.014C143.658 130.445 143.817 129.936 144.134 129.488C144.461 129.04 144.913 128.69 145.492 128.438C146.071 128.186 146.757 128.06 147.55 128.06C148.194 128.06 148.759 128.144 149.244 128.312C149.739 128.48 150.154 128.704 150.49 128.984C150.826 129.264 151.078 129.563 151.246 129.88C151.423 130.188 151.517 130.491 151.526 130.79C151.526 130.865 151.498 130.935 151.442 131C151.395 131.056 151.325 131.084 151.232 131.084H149.384C149.281 131.084 149.193 131.065 149.118 131.028C149.043 130.991 148.978 130.93 148.922 130.846C148.866 130.641 148.717 130.463 148.474 130.314C148.241 130.155 147.933 130.076 147.55 130.076C147.139 130.076 146.817 130.151 146.584 130.3C146.36 130.44 146.248 130.659 146.248 130.958C146.248 131.145 146.309 131.308 146.43 131.448C146.561 131.588 146.771 131.709 147.06 131.812C147.359 131.915 147.765 132.022 148.278 132.134C149.127 132.293 149.813 132.493 150.336 132.736C150.859 132.969 151.241 133.277 151.484 133.66C151.736 134.033 151.862 134.505 151.862 135.074C151.862 135.709 151.68 136.255 151.316 136.712C150.952 137.169 150.453 137.524 149.818 137.776C149.193 138.019 148.465 138.14 147.634 138.14ZM156.969 138.14C155.868 138.14 154.991 137.841 154.337 137.244C153.684 136.647 153.343 135.76 153.315 134.584C153.315 134.519 153.315 134.435 153.315 134.332C153.315 134.229 153.315 134.15 153.315 134.094C153.343 133.357 153.507 132.727 153.805 132.204C154.113 131.672 154.533 131.271 155.065 131C155.607 130.72 156.237 130.58 156.955 130.58C157.777 130.58 158.453 130.743 158.985 131.07C159.527 131.397 159.933 131.84 160.203 132.4C160.474 132.96 160.609 133.599 160.609 134.318V134.654C160.609 134.757 160.577 134.841 160.511 134.906C160.446 134.971 160.362 135.004 160.259 135.004H155.779C155.779 135.013 155.779 135.027 155.779 135.046C155.779 135.065 155.779 135.083 155.779 135.102C155.789 135.373 155.835 135.62 155.919 135.844C156.013 136.068 156.143 136.245 156.311 136.376C156.489 136.507 156.703 136.572 156.955 136.572C157.142 136.572 157.296 136.544 157.417 136.488C157.548 136.423 157.655 136.353 157.739 136.278C157.823 136.194 157.889 136.124 157.935 136.068C158.019 135.965 158.085 135.905 158.131 135.886C158.187 135.858 158.271 135.844 158.383 135.844H160.119C160.213 135.844 160.287 135.872 160.343 135.928C160.409 135.984 160.437 136.059 160.427 136.152C160.418 136.311 160.339 136.502 160.189 136.726C160.04 136.95 159.821 137.174 159.531 137.398C159.251 137.613 158.897 137.79 158.467 137.93C158.038 138.07 157.539 138.14 156.969 138.14ZM155.779 133.618H158.145V133.59C158.145 133.282 158.099 133.021 158.005 132.806C157.921 132.582 157.786 132.409 157.599 132.288C157.422 132.167 157.207 132.106 156.955 132.106C156.713 132.106 156.503 132.167 156.325 132.288C156.148 132.409 156.013 132.582 155.919 132.806C155.826 133.021 155.779 133.282 155.779 133.59V133.618ZM166.132 138C165.535 138 165.017 137.907 164.578 137.72C164.149 137.524 163.817 137.225 163.584 136.824C163.351 136.413 163.234 135.886 163.234 135.242V132.554H162.142C162.039 132.554 161.951 132.521 161.876 132.456C161.811 132.391 161.778 132.307 161.778 132.204V131.07C161.778 130.967 161.811 130.883 161.876 130.818C161.951 130.753 162.039 130.72 162.142 130.72H163.234V128.41C163.234 128.307 163.267 128.223 163.332 128.158C163.407 128.093 163.491 128.06 163.584 128.06H165.208C165.311 128.06 165.395 128.093 165.46 128.158C165.525 128.223 165.558 128.307 165.558 128.41V130.72H167.308C167.411 130.72 167.495 130.753 167.56 130.818C167.635 130.883 167.672 130.967 167.672 131.07V132.204C167.672 132.307 167.635 132.391 167.56 132.456C167.495 132.521 167.411 132.554 167.308 132.554H165.558V135.046C165.558 135.363 165.619 135.615 165.74 135.802C165.861 135.989 166.067 136.082 166.356 136.082H167.434C167.537 136.082 167.621 136.115 167.686 136.18C167.751 136.245 167.784 136.329 167.784 136.432V137.65C167.784 137.743 167.751 137.827 167.686 137.902C167.621 137.967 167.537 138 167.434 138H166.132ZM144.33 155C144.227 155 144.143 154.967 144.078 154.902C144.013 154.827 143.98 154.743 143.98 154.65V145.55C143.98 145.447 144.013 145.363 144.078 145.298C144.143 145.233 144.227 145.2 144.33 145.2H146.178C146.281 145.2 146.365 145.233 146.43 145.298C146.495 145.363 146.528 145.447 146.528 145.55V152.886H150.77C150.873 152.886 150.957 152.923 151.022 152.998C151.087 153.063 151.12 153.147 151.12 153.25V154.65C151.12 154.743 151.087 154.827 151.022 154.902C150.957 154.967 150.873 155 150.77 155H144.33ZM156.055 155.14C155.271 155.14 154.608 155.014 154.067 154.762C153.535 154.51 153.124 154.151 152.835 153.684C152.555 153.208 152.396 152.643 152.359 151.99C152.35 151.803 152.345 151.593 152.345 151.36C152.345 151.117 152.35 150.907 152.359 150.73C152.396 150.067 152.564 149.503 152.863 149.036C153.162 148.569 153.577 148.21 154.109 147.958C154.65 147.706 155.299 147.58 156.055 147.58C156.82 147.58 157.469 147.706 158.001 147.958C158.542 148.21 158.962 148.569 159.261 149.036C159.56 149.503 159.728 150.067 159.765 150.73C159.774 150.907 159.779 151.117 159.779 151.36C159.779 151.593 159.774 151.803 159.765 151.99C159.728 152.643 159.564 153.208 159.275 153.684C158.995 154.151 158.584 154.51 158.043 154.762C157.511 155.014 156.848 155.14 156.055 155.14ZM156.055 153.432C156.475 153.432 156.778 153.306 156.965 153.054C157.161 152.802 157.273 152.424 157.301 151.92C157.31 151.78 157.315 151.593 157.315 151.36C157.315 151.127 157.31 150.94 157.301 150.8C157.273 150.305 157.161 149.932 156.965 149.68C156.778 149.419 156.475 149.288 156.055 149.288C155.654 149.288 155.35 149.419 155.145 149.68C154.949 149.932 154.842 150.305 154.823 150.8C154.814 150.94 154.809 151.127 154.809 151.36C154.809 151.593 154.814 151.78 154.823 151.92C154.842 152.424 154.949 152.802 155.145 153.054C155.35 153.306 155.654 153.432 156.055 153.432ZM165.016 155.14C164.325 155.14 163.714 155.014 163.182 154.762C162.65 154.51 162.225 154.146 161.908 153.67C161.6 153.185 161.432 152.606 161.404 151.934C161.394 151.785 161.39 151.598 161.39 151.374C161.39 151.141 161.394 150.949 161.404 150.8C161.432 150.119 161.6 149.54 161.908 149.064C162.216 148.579 162.636 148.21 163.168 147.958C163.709 147.706 164.325 147.58 165.016 147.58C165.66 147.58 166.21 147.673 166.668 147.86C167.134 148.037 167.508 148.261 167.788 148.532C168.077 148.803 168.292 149.083 168.432 149.372C168.581 149.652 168.66 149.899 168.67 150.114C168.679 150.207 168.646 150.291 168.572 150.366C168.497 150.431 168.413 150.464 168.32 150.464H166.542C166.439 150.464 166.36 150.441 166.304 150.394C166.248 150.347 166.196 150.277 166.15 150.184C166.038 149.895 165.893 149.689 165.716 149.568C165.548 149.447 165.328 149.386 165.058 149.386C164.684 149.386 164.395 149.507 164.19 149.75C163.994 149.993 163.886 150.366 163.868 150.87C163.858 151.243 163.858 151.575 163.868 151.864C163.896 152.377 164.008 152.751 164.204 152.984C164.4 153.217 164.684 153.334 165.058 153.334C165.347 153.334 165.576 153.273 165.744 153.152C165.912 153.021 166.047 152.816 166.15 152.536C166.196 152.443 166.248 152.373 166.304 152.326C166.36 152.279 166.439 152.256 166.542 152.256H168.32C168.413 152.256 168.497 152.289 168.572 152.354C168.646 152.419 168.679 152.503 168.67 152.606C168.66 152.755 168.614 152.937 168.53 153.152C168.446 153.367 168.315 153.591 168.138 153.824C167.96 154.057 167.727 154.272 167.438 154.468C167.158 154.664 166.817 154.827 166.416 154.958C166.014 155.079 165.548 155.14 165.016 155.14ZM172.612 155.14C172.108 155.14 171.655 155.047 171.254 154.86C170.862 154.664 170.549 154.403 170.316 154.076C170.082 153.749 169.966 153.381 169.966 152.97C169.966 152.307 170.236 151.785 170.778 151.402C171.319 151.01 172.038 150.744 172.934 150.604L174.684 150.338V150.142C174.684 149.806 174.614 149.549 174.474 149.372C174.334 149.195 174.077 149.106 173.704 149.106C173.442 149.106 173.228 149.157 173.06 149.26C172.901 149.363 172.775 149.503 172.682 149.68C172.598 149.801 172.481 149.862 172.332 149.862H170.764C170.661 149.862 170.582 149.834 170.526 149.778C170.47 149.713 170.446 149.638 170.456 149.554C170.456 149.386 170.516 149.195 170.638 148.98C170.768 148.756 170.964 148.537 171.226 148.322C171.487 148.107 171.823 147.93 172.234 147.79C172.644 147.65 173.144 147.58 173.732 147.58C174.329 147.58 174.842 147.65 175.272 147.79C175.701 147.93 176.051 148.126 176.322 148.378C176.592 148.63 176.788 148.929 176.91 149.274C177.04 149.61 177.106 149.983 177.106 150.394V154.65C177.106 154.743 177.068 154.827 176.994 154.902C176.928 154.967 176.849 155 176.756 155H175.132C175.029 155 174.945 154.967 174.88 154.902C174.814 154.827 174.782 154.743 174.782 154.65V154.16C174.66 154.337 174.497 154.501 174.292 154.65C174.086 154.799 173.844 154.916 173.564 155C173.293 155.093 172.976 155.14 172.612 155.14ZM173.27 153.544C173.54 153.544 173.783 153.488 173.998 153.376C174.222 153.255 174.394 153.073 174.516 152.83C174.646 152.578 174.712 152.265 174.712 151.892V151.696L173.522 151.906C173.083 151.981 172.761 152.097 172.556 152.256C172.36 152.405 172.262 152.583 172.262 152.788C172.262 152.947 172.308 153.082 172.402 153.194C172.495 153.306 172.616 153.395 172.766 153.46C172.924 153.516 173.092 153.544 173.27 153.544ZM182.855 155C182.257 155 181.739 154.907 181.301 154.72C180.871 154.524 180.54 154.225 180.307 153.824C180.073 153.413 179.957 152.886 179.957 152.242V149.554H178.865C178.762 149.554 178.673 149.521 178.599 149.456C178.533 149.391 178.501 149.307 178.501 149.204V148.07C178.501 147.967 178.533 147.883 178.599 147.818C178.673 147.753 178.762 147.72 178.865 147.72H179.957V145.41C179.957 145.307 179.989 145.223 180.055 145.158C180.129 145.093 180.213 145.06 180.307 145.06H181.931C182.033 145.06 182.117 145.093 182.183 145.158C182.248 145.223 182.281 145.307 182.281 145.41V147.72H184.031C184.133 147.72 184.217 147.753 184.283 147.818C184.357 147.883 184.395 147.967 184.395 148.07V149.204C184.395 149.307 184.357 149.391 184.283 149.456C184.217 149.521 184.133 149.554 184.031 149.554H182.281V152.046C182.281 152.363 182.341 152.615 182.463 152.802C182.584 152.989 182.789 153.082 183.079 153.082H184.157C184.259 153.082 184.343 153.115 184.409 153.18C184.474 153.245 184.507 153.329 184.507 153.432V154.65C184.507 154.743 184.474 154.827 184.409 154.902C184.343 154.967 184.259 155 184.157 155H182.855ZM186.516 155C186.413 155 186.329 154.967 186.264 154.902C186.199 154.827 186.166 154.743 186.166 154.65V148.07C186.166 147.967 186.199 147.883 186.264 147.818C186.329 147.753 186.413 147.72 186.516 147.72H188.168C188.271 147.72 188.355 147.753 188.42 147.818C188.485 147.883 188.518 147.967 188.518 148.07V154.65C188.518 154.743 188.485 154.827 188.42 154.902C188.355 154.967 188.271 155 188.168 155H186.516ZM186.502 146.67C186.399 146.67 186.315 146.637 186.25 146.572C186.185 146.507 186.152 146.423 186.152 146.32V145.06C186.152 144.967 186.185 144.887 186.25 144.822C186.315 144.747 186.399 144.71 186.502 144.71H188.182C188.275 144.71 188.355 144.747 188.42 144.822C188.495 144.887 188.532 144.967 188.532 145.06V146.32C188.532 146.423 188.495 146.507 188.42 146.572C188.355 146.637 188.275 146.67 188.182 146.67H186.502ZM194.116 155.14C193.332 155.14 192.669 155.014 192.128 154.762C191.596 154.51 191.185 154.151 190.896 153.684C190.616 153.208 190.457 152.643 190.42 151.99C190.41 151.803 190.406 151.593 190.406 151.36C190.406 151.117 190.41 150.907 190.42 150.73C190.457 150.067 190.625 149.503 190.924 149.036C191.222 148.569 191.638 148.21 192.17 147.958C192.711 147.706 193.36 147.58 194.116 147.58C194.881 147.58 195.53 147.706 196.062 147.958C196.603 148.21 197.023 148.569 197.322 149.036C197.62 149.503 197.788 150.067 197.826 150.73C197.835 150.907 197.84 151.117 197.84 151.36C197.84 151.593 197.835 151.803 197.826 151.99C197.788 152.643 197.625 153.208 197.336 153.684C197.056 154.151 196.645 154.51 196.104 154.762C195.572 155.014 194.909 155.14 194.116 155.14ZM194.116 153.432C194.536 153.432 194.839 153.306 195.026 153.054C195.222 152.802 195.334 152.424 195.362 151.92C195.371 151.78 195.376 151.593 195.376 151.36C195.376 151.127 195.371 150.94 195.362 150.8C195.334 150.305 195.222 149.932 195.026 149.68C194.839 149.419 194.536 149.288 194.116 149.288C193.714 149.288 193.411 149.419 193.206 149.68C193.01 149.932 192.902 150.305 192.884 150.8C192.874 150.94 192.87 151.127 192.87 151.36C192.87 151.593 192.874 151.78 192.884 151.92C192.902 152.424 193.01 152.802 193.206 153.054C193.411 153.306 193.714 153.432 194.116 153.432ZM200.08 155C199.978 155 199.894 154.967 199.828 154.902C199.763 154.827 199.73 154.743 199.73 154.65V148.07C199.73 147.967 199.763 147.883 199.828 147.818C199.894 147.753 199.978 147.72 200.08 147.72H201.69C201.793 147.72 201.877 147.753 201.942 147.818C202.017 147.883 202.054 147.967 202.054 148.07V148.602C202.288 148.313 202.6 148.07 202.992 147.874C203.384 147.678 203.846 147.58 204.378 147.58C204.92 147.58 205.396 147.701 205.806 147.944C206.226 148.187 206.553 148.541 206.786 149.008C207.029 149.475 207.15 150.053 207.15 150.744V154.65C207.15 154.743 207.118 154.827 207.052 154.902C206.987 154.967 206.903 155 206.8 155H205.036C204.943 155 204.859 154.967 204.784 154.902C204.719 154.827 204.686 154.743 204.686 154.65V150.828C204.686 150.389 204.579 150.053 204.364 149.82C204.159 149.577 203.851 149.456 203.44 149.456C203.058 149.456 202.75 149.577 202.516 149.82C202.292 150.053 202.18 150.389 202.18 150.828V154.65C202.18 154.743 202.143 154.827 202.068 154.902C202.003 154.967 201.924 155 201.83 155H200.08Z" fill="white"/>
<path d="M79.005 65H80.895V60.215L84.69 53.9H82.74L79.98 58.625L77.205 53.9H75.225L79.005 60.215V65ZM87.2923 65.165C89.2273 65.165 91.1773 63.935 91.1773 61.025C91.1773 58.085 89.2273 56.885 87.2923 56.885C85.3423 56.885 83.4073 58.085 83.4073 61.025C83.4073 63.935 85.3573 65.165 87.2923 65.165ZM87.2923 63.62C85.8823 63.62 85.2673 62.54 85.2673 61.025C85.2673 59.42 85.9573 58.46 87.2923 58.46C88.6873 58.46 89.3173 59.54 89.3173 61.025C89.3173 62.66 88.6273 63.62 87.2923 63.62ZM94.9978 65.15C96.4378 65.15 97.3978 64.46 97.9078 63.92V65H99.7678V57.035H97.9078V62.57C97.2328 63.185 96.5578 63.605 95.7478 63.605C94.9378 63.605 94.5628 63.2 94.5628 62.315V57.035H92.7028V62.75C92.7028 64.325 93.6028 65.15 94.9978 65.15ZM101.831 65H103.676V59.96C104.201 59.105 104.951 58.55 106.136 58.55C106.241 58.55 106.541 58.565 106.631 58.58L106.691 56.885H106.571C105.056 56.885 104.201 57.545 103.706 58.34H103.676V57.035H101.831V65ZM112.002 65H118.992V63.29H113.877V53.9H112.002V65ZM123.503 65.165C125.438 65.165 127.388 63.935 127.388 61.025C127.388 58.085 125.438 56.885 123.503 56.885C121.553 56.885 119.618 58.085 119.618 61.025C119.618 63.935 121.568 65.165 123.503 65.165ZM123.503 63.62C122.093 63.62 121.478 62.54 121.478 61.025C121.478 59.42 122.168 58.46 123.503 58.46C124.898 58.46 125.528 59.54 125.528 61.025C125.528 62.66 124.838 63.62 123.503 63.62ZM132.274 65.165C134.194 65.165 135.139 64.1 135.709 62.825L134.179 62.27C133.744 63.395 133.159 63.65 132.319 63.65C131.104 63.65 130.414 62.72 130.414 61.025C130.414 59.12 131.299 58.43 132.349 58.43C133.234 58.43 133.804 58.865 134.119 59.765L135.679 59.21C135.199 57.98 134.359 56.885 132.379 56.885C130.609 56.885 128.554 57.98 128.554 61.025C128.554 63.935 130.429 65.165 132.274 65.165ZM138.844 65.12C140.029 65.12 140.974 64.805 141.784 63.98C141.784 64.43 141.859 64.67 141.964 65H143.824C143.659 64.595 143.599 64.01 143.599 63.05V59.765C143.599 57.905 142.864 56.885 140.734 56.885C139.084 56.885 137.749 57.545 136.894 58.325L137.794 59.48C138.469 58.94 139.369 58.4 140.479 58.4C141.364 58.4 141.784 58.745 141.784 59.54V59.78C138.064 60.2 136.594 61.355 136.594 63.08C136.594 64.4 137.554 65.12 138.844 65.12ZM139.519 63.695C138.844 63.695 138.409 63.365 138.409 62.735C138.409 61.865 139.579 61.325 141.784 61.025V62.78C141.199 63.335 140.464 63.695 139.519 63.695ZM148.676 65.105C149.141 65.105 149.831 65.045 150.026 65V63.545C149.846 63.605 149.501 63.65 149.231 63.65C148.316 63.65 148.061 63.305 148.061 62.45V58.505H150.116V57.035H148.061V54.26H146.216V57.035H144.836V58.505H146.216V62.915C146.216 64.355 146.651 65.105 148.676 65.105ZM151.696 55.655H153.586V54.05H151.696V55.655ZM151.711 65H153.571V57.035H151.711V65ZM159.158 65.165C161.093 65.165 163.043 63.935 163.043 61.025C163.043 58.085 161.093 56.885 159.158 56.885C157.208 56.885 155.273 58.085 155.273 61.025C155.273 63.935 157.223 65.165 159.158 65.165ZM159.158 63.62C157.748 63.62 157.133 62.54 157.133 61.025C157.133 59.42 157.823 58.46 159.158 58.46C160.553 58.46 161.183 59.54 161.183 61.025C161.183 62.66 160.493 63.62 159.158 63.62ZM164.658 65H166.518V59.495C167.193 58.88 167.868 58.46 168.678 58.46C169.488 58.46 169.863 58.865 169.863 59.75V65H171.723V59.285C171.723 57.71 170.823 56.885 169.428 56.885C167.988 56.885 167.028 57.575 166.518 58.115V57.035H164.658V65Z" fill="white"/>
<circle cx="44.5" cy="60.5" r="16.5" fill="#FFE14D"/>
<mask id="mask0_601_18227" style="mask-type:alpha" maskUnits="userSpaceOnUse" x="28" y="44" width="33" height="33">
<circle cx="44.5" cy="60.5" r="16.5" fill="#FFE14D"/>
</mask>
<g mask="url(#mask0_601_18227)">
<path d="M53 79L44.5 70L49.5 62V51.5L64 68L53 79Z" fill="#F8D52B"/>
</g>
<path d="M44.5001 50.0049C40.096 50.0049 36.5039 53.5969 36.5039 58.001C36.5039 59.7479 37.0575 61.4086 38.1032 62.7987L44.008 70.7539C44.094 70.8768 44.3278 70.9999 44.5001 70.9999C44.6846 70.9999 44.9061 70.8646 44.9922 70.7538C45.0167 70.7169 50.9585 62.7125 51.0077 62.6387C51.02 62.6387 51.02 62.6387 51.02 62.6265C51.9796 61.2733 52.4962 59.674 52.4962 58.001C52.4962 53.597 48.9042 50.0049 44.5001 50.0049ZM44.5001 62.3067C42.1259 62.3067 40.1945 60.3753 40.1945 58.001C40.1945 55.6268 42.1259 53.6954 44.5001 53.6954C46.8742 53.6954 48.8057 55.6268 48.8057 58.001C48.8057 60.3753 46.8742 62.3067 44.5001 62.3067Z" fill="#FF833D"/>
<path d="M44.5 50V53.6905C46.8741 53.6905 48.8056 55.6219 48.8056 57.9962C48.8056 60.3704 46.8741 62.3018 44.5 62.3018V70.995C44.6846 70.995 44.9061 70.8597 44.9921 70.7489C45.0166 70.712 50.9584 62.7077 51.0077 62.6338C51.02 62.6338 51.02 62.6338 51.02 62.6216C51.9795 61.2684 52.4961 59.6691 52.4961 57.9962C52.4962 53.5921 48.9041 50 44.5 50Z" fill="#E86D28"/>
<defs>
<filter id="filter0_d_601_18227" x="-21" y="0" width="442" height="247" filterUnits="userSpaceOnUse" color-interpolation-filters="sRGB">
<feFlood flood-opacity="0" result="BackgroundImageFix"/>
<feColorMatrix in="SourceAlpha" type="matrix" values="0 0 0 0 0 0 0 0 0 0 0 0 0 0 0 0 0 0 127 0" result="hardAlpha"/>
<feOffset dx="12" dy="26"/>
<feGaussianBlur stdDeviation="25"/>
<feColorMatrix type="matrix" values="0 0 0 0 0.352941 0 0 0 0 0.423529 0 0 0 0 0.917647 0 0 0 0.07 0"/>
<feBlend mode="normal" in2="BackgroundImageFix" result="effect1_dropShadow_601_18227"/>
<feBlend mode="normal" in="SourceGraphic" in2="effect1_dropShadow_601_18227" result="shape"/>
</filter>
<filter id="filter1_d_601_18227" x="-11" y="80" width="422" height="157" filterUnits="userSpaceOnUse" color-interpolation-filters="sRGB">
<feFlood flood-opacity="0" result="BackgroundImageFix"/>
<feColorMatrix in="SourceAlpha" type="matrix" values="0 0 0 0 0 0 0 0 0 0 0 0 0 0 0 0 0 0 127 0" result="hardAlpha"/>
<feOffset dx="12" dy="26"/>
<feGaussianBlur stdDeviation="25"/>
<feColorMatrix type="matrix" values="0 0 0 0 0.352941 0 0 0 0 0.423529 0 0 0 0 0.917647 0 0 0 0.07 0"/>
<feBlend mode="normal" in2="BackgroundImageFix" result="effect1_dropShadow_601_18227"/>
<feBlend mode="normal" in="SourceGraphic" in2="effect1_dropShadow_601_18227" result="shape"/>
</filter>
</defs>
</svg>
